<svg xmlns="http://www.w3.org/2000/svg" width="16" height="16" viewBox="0 0 256 256"><g stroke-width="0" stroke-miterlimit="10" fill="none"><path d="M1.407 19.523c0-10.004 8.368-18.116 18.689-18.116h215.521c10.321 0 18.69 8.112 18.69 18.116V236.19c0 10.006-8.369 18.116-18.69 18.116H20.096c-10.321 0-18.69-8.11-18.69-18.116V19.523z" fill="#069"/><path d="M58.97 83.32c13.319 0 21.611-8.77 21.611-19.728-.247-11.206-8.29-19.732-21.359-19.732-13.066 0-21.609 8.526-21.609 19.732 0 10.959 8.29 19.729 21.11 19.729h.246zM78.069 213.11V98.91h-38.2v114.2h38.2zM99.206 213.11h38.199v-63.774c0-3.414.247-6.822 1.256-9.262 2.762-6.82 9.045-13.88 19.6-13.88 13.822 0 19.352 10.472 19.352 25.823v61.092h38.194v-65.478c0-35.078-18.844-51.398-43.977-51.398-20.605 0-29.654 11.445-34.68 19.24h.255V98.91h-38.2c.501 10.717 0 114.198 0 114.198z" fill="#fff"/></g></svg>